<svg xmlns="http://www.w3.org/2000/svg" viewBox="0 0 16 16">
	<defs id="defs3051">
		<style type="text/css" id="current-color-scheme">
			.ColorScheme-Text {
				color:#232629;
			}
			.ColorScheme-Highlight {
				color:#336699;
			}
		</style>
	</defs>
	<path
		d="M 4.09375,2 C 3.31051,2.0182 2.71841,2.14339 2.28125,2.34375 L 2.53125,3.25 C 2.74072,3.1771 3.53552,2.9375 4,2.9375 H 4.0625 C 4.70913,2.9648 4.75,3.19445 4.75,3.75 V 3.96875 L 4.40625,4.03125 C 2.83976,4.25893 2,4.45406 2,5.65625 2,6.49414 2.61657,7 3.5,7 4.1102,7 4.49642,6.75233 4.90625,6.40625 L 5,7 H 6 V 3.53125 C 6,2.50211 5.2804,2 4.1875,2 Z M 4.75,4.6875 v 1.125 C 4.41303,6.0402 4.15591,6.1875 3.71875,6.1875 3.32713,6.1875 3.125,5.93983 3.125,5.59375 c 0,-0.65574 0.57997,-0.77482 1.28125,-0.875 z M 2,9 v 1 H 4.375 L 2,13.318359 V 14 H 6 V 13 H 4 L 6,10 V 9 Z"
		style="fill:currentColor"
		class="ColorScheme-Text"
	/>
	<path
		d="M 7.25,2 V 2.75 H 14 V 2 Z m 0,1.5 v 0.75 h 4.5 V 3.5 Z m 0,3 V 7.25 H 14 V 6.5 Z m 0,1.5 v 0.7499999 h 1.5 V 8 Z m 0,3 v 0.75 H 14 V 11 Z m 0,1.5 v 0.75 h 4.5 V 12.5 Z m 5.25,0.75 V 14 H 14 v -0.75 z"
		style="fill:currentColor"
		class="ColorScheme-Text"
	/>
</svg>
